<svg width="2024" height="512" viewBox="0 0 2024 512" fill="none" xmlns="http://www.w3.org/2000/svg">
<path d="M251.5 0.499619C291.083 -0.837381 323.583 13.4956 349 43.4996C367.303 72.3276 371.803 103.328 362.5 136.5C364.683 143.76 366.016 151.26 366.5 159C365.061 177.424 355.728 189.758 338.5 196C334.219 196.21 330.052 196.377 326 196.5C324.755 207.175 322.922 218.842 321.5 229.5C297.795 249.53 274.128 274.863 258.5 301.5C242.5 275 215.5 240 200 229.5C198.801 218.881 194.801 208.214 194 197.5C177.043 197.771 164.543 190.438 156.5 175.5C154.39 170.726 153.39 165.726 153.5 160.5C154.52 151.579 155.853 142.745 157.5 134C144.364 83.0426 159.697 43.3756 203.5 14.9996C218.63 6.78562 234.63 1.95162 251.5 0.499619Z" fill="white"/>
<path fill-rule="evenodd" clip-rule="evenodd" d="M260.5 21.5C293.537 22.435 319.037 36.768 337 64.5C343.557 78.382 346.224 93.049 345 108.5C344.313 116.245 343.147 123.912 341.5 131.5C342.185 140.942 343.519 150.276 345.5 159.5C344.073 167.114 339.74 172.614 332.5 176C326.148 176.654 319.815 176.488 313.5 175.5C311.074 175.404 308.907 176.07 307 177.5C305.203 182.661 304.203 187.995 304 193.5C303.667 200.833 303.333 208.167 303 215.5C301.023 218.312 298.856 220.978 296.5 223.5C295.349 224.731 294.183 224.731 293 223.5C292.552 217.569 289.886 213.236 285 210.5C283.289 210.439 281.956 211.106 281 212.5C279.094 217.892 276.261 222.725 272.5 227C270.888 227.72 269.388 227.554 268 226.5C263.046 209.903 257.546 209.569 251.5 225.5C250.562 226.553 249.395 227.22 248 227.5C245.679 226.513 244.013 224.846 243 222.5C241.607 218.714 239.941 215.048 238 211.5C235.496 209.353 233.162 209.353 231 211.5C229.743 216.236 227.743 220.569 225 224.5C221.667 222.5 219 219.833 217 216.5C216.632 206.146 215.966 195.813 215 185.5C214.375 177.354 210.042 174.02 202 175.5C192.056 178.659 183.722 176.325 177 168.5C175.541 165.331 174.708 161.998 174.5 158.5C176.602 150.989 177.935 143.322 178.5 135.5C177.274 127.864 176.107 120.197 175 112.5C171.733 88.986 177.733 68.319 193 50.5C203.424 39.707 215.59 31.541 229.5 26C239.823 23.396 250.156 21.896 260.5 21.5Z" fill="#022B3A"/>
<path fill-rule="evenodd" clip-rule="evenodd" d="M202.5 103.5C206.853 103.765 211.187 104.265 215.5 105C223.531 109.016 231.531 113.016 239.5 117C243.305 121.091 244.472 125.924 243 131.5C239.28 143.888 231.114 151.388 218.5 154C199.127 156.963 189.127 148.63 188.5 129C188.621 122.473 190.121 116.306 193 110.5C195.529 107.115 198.696 104.782 202.5 103.5Z" fill="white"/>
<path fill-rule="evenodd" clip-rule="evenodd" d="M308.5 103.5C320.174 102.909 327.34 108.242 330 119.5C332.221 131.454 329.388 141.954 321.5 151C306.274 157.929 293.274 155.096 282.5 142.5C278.151 135.769 276.317 128.436 277 120.5C277.93 118.448 279.43 116.948 281.5 116C290.458 111.49 299.458 107.323 308.5 103.5Z" fill="white"/>
<path fill-rule="evenodd" clip-rule="evenodd" d="M257.5 144.5C259.927 144.523 262.26 145.023 264.5 146C270.588 152.586 273.755 160.419 274 169.5C274.929 176.021 274.263 182.354 272 188.5C267.302 193.03 264.135 192.03 262.5 185.5C260.002 182.809 257.835 183.142 256 186.5C255.244 190.763 252.744 192.263 248.5 191C245.552 184.897 244.719 178.397 246 171.5C246.274 165.699 247.274 160.032 249 154.5C251.15 150.497 253.984 147.164 257.5 144.5Z" fill="white"/>
<path fill-rule="evenodd" clip-rule="evenodd" d="M56.5003 182.5C64.2053 183.563 71.8713 185.063 79.5003 187C149.555 207.387 205.389 247.554 247 307.5C251.527 315.221 255.527 323.221 259 331.5C260.333 332.833 261.667 332.833 263 331.5C276.011 301.809 294.511 275.975 318.5 254C350.676 224.23 388.009 203.23 430.5 191C440.795 188.01 451.128 185.176 461.5 182.5C464.133 183.301 465.967 184.967 467 187.5C468.272 199.702 469.438 211.869 470.5 224C481.405 222.429 492.405 221.096 503.5 220C507.833 219.333 512.167 219.333 516.5 220C518.061 220.318 519.228 221.151 520 222.5C511.112 287.052 502.112 351.718 493 416.5C491.602 420.454 488.768 422.288 484.5 422C451.541 425.464 419.541 432.798 388.5 444C377.711 449.036 367.044 454.369 356.5 460C332.841 475.162 309.508 490.662 286.5 506.5C266.668 514.128 247.335 512.962 228.5 503C198.502 480.054 166.169 460.721 131.5 445C119.306 440.269 106.973 435.935 94.5003 432C72.9353 426.787 51.2692 422.287 29.5002 418.5C28.3762 416.631 27.5432 414.631 27.0002 412.5C18.4342 354.109 9.76725 295.776 1.00025 237.5C0.33325 231.833 0.33325 226.167 1.00025 220.5C1.73925 219.426 2.73925 218.759 4.00025 218.5C19.5872 220.136 35.0873 222.136 50.5003 224.5C50.5453 212.105 51.3793 199.772 53.0003 187.5C53.9973 185.677 55.1643 184.01 56.5003 182.5Z" fill="white"/>
<path fill-rule="evenodd" clip-rule="evenodd" d="M73.5 208.5C100.607 214.055 125.607 224.555 148.5 240C173.156 256.155 194.822 275.655 213.5 298.5C213.333 298.833 213.167 299.167 213 299.5C189.218 280.689 163.718 264.522 136.5 251C115.756 241.029 94.09 234.195 71.5 230.5C71.729 223.078 72.396 215.744 73.5 208.5Z" fill="#022B3A"/>
<path fill-rule="evenodd" clip-rule="evenodd" d="M443.5 208.5C445.144 208.286 446.644 208.62 448 209.5C448.811 216.414 448.645 223.248 447.5 230C395.403 241.382 349.403 264.382 309.5 299C308.517 299.591 307.85 299.257 307.5 298C342.861 252.832 388.194 222.999 443.5 208.5Z" fill="#022B3A"/>
<path fill-rule="evenodd" clip-rule="evenodd" d="M24.5 242.5C89.761 249.288 147.428 273.454 197.5 315C204.365 321.531 210.865 328.364 217 335.5C219.116 376.244 220.616 417.077 221.5 458C221.64 462.674 221.14 467.174 220 471.5C168.242 433.463 110.575 409.129 47 398.5C39.006 347.7 31.172 296.867 23.5 246C23.648 244.744 23.982 243.577 24.5 242.5Z" fill="#1F7A8C"/>
<path fill-rule="evenodd" clip-rule="evenodd" d="M492.5 242.5C494.95 242.874 495.95 244.374 495.5 247C488.651 297.944 481.151 348.777 473 399.5C454.949 403.912 436.782 408.079 418.5 412C395.414 417.917 373.414 426.584 352.5 438C335.297 447.878 318.63 458.544 302.5 470C301.833 470.667 301.167 470.667 300.5 470C299.844 464.412 299.511 458.745 299.5 453C300.851 414.512 301.684 376.012 302 337.5C309.129 328.037 317.296 319.537 326.5 312C363.454 280.871 405.787 260.205 453.5 250C466.647 247.536 479.647 245.036 492.5 242.5Z" fill="#1F7A8C"/>
<path d="M279.5 349.5C279.071 394.172 279.5 485.5 279.5 485.5C274.5 489 267.292 491 260.5 491C253.708 491 244.126 488.231 241.5 485.5L241.5 349.5C249.5 353 254.5 354 260.5 354C266.5 354 275 352 279.5 349.5Z" fill="#1F7A8C"/>
<path fill-rule="evenodd" clip-rule="evenodd" d="M1313.13 0.228288C1346.09 -1.15872 1377.97 3.77438 1408.79 15.0322C1411.03 34.1975 1411.79 53.5564 1411.07 73.1088C1405.61 75.0743 1400.3 75.0743 1395.13 73.1088C1382.88 53.6383 1366.17 39.5929 1345.02 30.9748C1325.75 25.8982 1309.8 30.8313 1297.19 45.7786C1293.99 54.2943 1294.37 62.6459 1298.33 70.8313C1304.02 76.5251 1309.72 82.2189 1315.41 87.9127C1344.17 99.0315 1372.26 111.938 1399.68 126.63C1429.28 148.907 1438.77 178.134 1428.15 214.315C1419.42 238.229 1403.1 254.552 1379.18 263.282C1332.76 272.077 1287.21 268.661 1242.53 253.033C1240.82 251.038 1239.68 248.76 1239.12 246.2C1237.6 229.499 1237.6 212.796 1239.12 196.095C1239.97 194.009 1241.11 192.109 1242.53 190.401C1248.61 188.882 1254.68 188.882 1260.75 190.401C1282.55 233.202 1315.95 246.867 1360.96 231.396C1374.76 220.901 1378.18 207.617 1371.21 191.54C1365.58 185.907 1359.89 180.214 1354.13 174.458C1327.79 162.736 1301.22 151.348 1274.42 140.296C1239.36 117.552 1228.35 86.0474 1241.39 45.7786C1250.37 27.7771 1264.42 15.2508 1283.53 8.1996C1293.59 5.1204 1303.46 2.46253 1313.13 0.228288Z" fill="white"/>
<path fill-rule="evenodd" clip-rule="evenodd" d="M609.381 2.50586C631.796 5.10451 654.191 5.10451 676.567 2.50586C682.352 4.06596 688.046 5.96541 693.649 8.19965C738.172 58.4053 782.203 108.891 825.745 159.655C827.079 159.179 828.218 158.418 829.161 157.377C830.457 117.033 828.94 76.7985 824.606 36.6686C822.709 33.2523 820.051 30.5945 816.635 28.6973C810.34 27.4857 804.268 25.5862 798.414 23.0035C792.076 16.5308 792.835 10.837 800.692 5.92214C828.79 4.33926 856.881 3.58085 884.96 3.64462C896.847 10.9076 896.847 18.4986 884.96 26.4198C874.629 26.8912 867.419 31.8266 863.324 41.2237C862.565 112.585 861.805 183.949 861.046 255.31C860.028 266.19 853.954 271.503 842.826 271.253C837.54 270.321 832.607 268.422 828.022 265.559C776.193 208.546 725.709 150.469 676.567 91.329C675.048 92.8481 673.531 94.365 672.012 95.8841C670.359 137.681 671.117 179.435 674.29 221.148C675.465 226.919 678.123 231.852 682.261 235.951C689.233 237.885 695.307 241.301 700.481 246.2C704.394 252.971 702.875 257.907 695.926 261.004C667.838 262.523 639.747 262.523 611.658 261.004C607.502 257.665 606.363 253.491 608.242 248.478C613.726 242.884 620.178 238.709 627.601 235.951C631.129 233.187 633.784 229.77 635.572 225.703C640.029 167.271 640.029 108.816 635.572 50.3337C633.693 43.0821 629.518 37.3883 623.046 33.2523C615.794 29.827 608.581 26.4107 601.409 23.0035C594.984 11.8961 597.64 5.06351 609.381 2.50586Z" fill="white"/>
<path fill-rule="evenodd" clip-rule="evenodd" d="M1001.11 4.78329C1028.46 4.40294 1055.79 4.78329 1083.1 5.92205C1113.07 75.3749 1141.54 145.598 1168.51 216.592C1174.49 230.8 1184.74 240.67 1199.26 246.2C1202.14 250.461 1202.14 254.636 1199.26 258.726C1165.61 261.364 1131.83 263.263 1097.91 264.42C1086.22 263.395 1081.67 257.321 1084.24 246.2C1091.52 241.265 1097.98 235.571 1103.6 229.119C1099.67 217.617 1095.87 205.849 1092.21 193.817C1091.02 192.241 1089.5 191.102 1087.66 190.401C1058.71 188.41 1029.87 189.171 1001.11 192.678C999.001 193.562 997.481 195.081 996.559 197.233C995.443 204.396 992.785 210.848 988.588 216.592C985.745 226.126 988.403 233.719 996.559 239.368C1000.92 241.356 1005.09 243.633 1009.09 246.2C1010.93 250.935 1010.55 255.49 1007.95 259.865C979.409 262.885 950.94 262.885 922.54 259.865C919.577 255.618 918.816 251.063 920.262 246.2C936.205 239.368 947.592 227.98 954.425 212.037C974.335 157.621 995.593 103.719 1018.2 50.3336C1019.71 44.2595 1019.71 38.1876 1018.2 32.1135C1012.51 27.7475 1006.43 23.9509 999.975 20.7259C998.374 15.1938 998.752 9.88037 1001.11 4.78329Z" fill="white"/>
<path fill-rule="evenodd" clip-rule="evenodd" d="M1477.11 4.78329C1553.04 4.40294 1628.95 4.78329 1704.87 5.92205C1706.01 7.06081 1707.14 8.19957 1708.28 9.33833C1709.8 32.1135 1709.8 54.8887 1708.28 77.6639C1703.38 82.0913 1697.69 83.2301 1691.2 81.0801C1683.01 62.3134 1670.1 47.8876 1652.48 37.8073C1642.97 34.2817 1633.48 33.9014 1624.01 36.6685C1622.5 100.439 1622.5 164.21 1624.01 227.98C1630.21 237.152 1638.94 242.087 1650.21 242.784C1653.8 249.518 1653.04 255.593 1647.93 261.004C1609.21 262.523 1570.49 262.523 1531.78 261.004C1525.7 254.93 1525.7 248.858 1531.78 242.784C1538.47 240.16 1545.3 237.883 1552.27 235.951C1555.01 233.895 1556.91 231.239 1557.97 227.98C1559.49 164.21 1559.49 100.439 1557.97 36.6685C1545.85 33.2113 1534.09 34.35 1522.67 40.0848C1509.58 51.4883 1498.95 64.7731 1490.78 79.9414C1484.78 82.2553 1478.71 82.2553 1472.56 79.9414C1470.14 57.2277 1469.76 34.4525 1471.42 11.6158C1473.01 8.90332 1474.91 6.6258 1477.11 4.78329Z" fill="white"/>
<path fill-rule="evenodd" clip-rule="evenodd" d="M1741.31 4.78329C1781.55 4.40294 1821.79 4.78329 1862.02 5.92205C1866.97 10.1696 1867.73 15.1027 1864.29 20.7259C1857.01 22.7142 1850.94 26.5108 1846.07 32.1135C1847.56 35.7917 1848.7 39.5883 1849.49 43.5011C1864.7 69.3873 1879.89 95.1985 1895.04 120.937C1912.52 96.6242 1927.7 70.8131 1940.59 43.5011C1942.43 38.7661 1942.05 34.2111 1939.45 29.836C1933.81 26.841 1928.88 23.0444 1924.65 18.4484C1922.77 13.4356 1923.91 9.26089 1928.06 5.92205C1956.15 4.40294 1984.24 4.40294 2012.33 5.92205C2024.6 7.84427 2026.88 13.9184 2019.16 24.1422C2002.84 29.4078 1989.17 38.8982 1978.17 52.6112C1956.65 85.8379 1935.77 119.242 1915.54 152.822C1914.02 177.875 1914.02 202.927 1915.54 227.98C1920.86 238.744 1929.59 244.818 1941.73 246.2C1944.62 250.461 1944.62 254.636 1941.73 258.726C1921.83 261.323 1901.71 262.462 1881.38 262.143C1862.77 261.762 1844.18 261.384 1825.58 261.004C1820.55 255.973 1819.79 250.279 1823.3 243.923C1828.82 240.176 1834.9 237.52 1841.52 235.951C1844.25 233.895 1846.15 231.239 1847.21 227.98C1848.73 208.241 1848.73 188.504 1847.21 168.765C1823.17 124.487 1797.36 81.2145 1769.78 38.946C1761.16 30.7675 1751.29 24.6956 1740.17 20.7259C1738.9 15.294 1739.28 9.98058 1741.31 4.78329Z" fill="white"/>
<path fill-rule="evenodd" clip-rule="evenodd" d="M1039.83 75.3857C1044.66 78.7701 1048.07 83.3252 1050.08 89.0508C1058.35 111.589 1067.08 133.984 1076.27 156.238C1075.94 157.996 1075.18 159.515 1073.99 160.793C1053.5 162.312 1033 162.312 1012.5 160.793C1011.46 159.85 1010.7 158.711 1010.22 157.376C1020.67 130.019 1030.54 102.689 1039.83 75.3857Z" fill="#022B3A"/>
<path fill-rule="evenodd" clip-rule="evenodd" d="M1153.71 335.023C1180.13 332.17 1205.18 336.344 1228.87 347.55C1257.03 368.977 1268.79 397.446 1264.17 432.957C1253.47 481.591 1223.11 507.402 1173.07 510.392C1102.3 506.309 1071.94 469.11 1081.97 398.794C1093.81 363.524 1117.72 342.268 1153.71 335.023Z" fill="white"/>
<path fill-rule="evenodd" clip-rule="evenodd" d="M1417.9 332.745C1488.1 331.208 1521.89 365.37 1519.25 435.233C1511.23 471.346 1489.59 495.259 1454.34 506.975C1412.66 517.545 1377.36 507.296 1348.43 476.229C1321.41 425.791 1330.14 382.898 1374.63 347.549C1388.5 340.12 1402.92 335.184 1417.9 332.745Z" fill="white"/>
<path fill-rule="evenodd" clip-rule="evenodd" d="M853.076 335.024C886.487 334.643 919.891 335.024 953.286 336.162C963.385 339.312 973.256 343.109 982.894 347.55C993.701 359.55 997.117 373.596 993.143 389.684C988.811 400.844 980.84 408.057 969.229 411.32C983.095 416.167 994.86 424.138 1004.53 435.234C1014.76 458.47 1009.83 477.828 989.727 493.311C980.623 498.88 970.753 502.676 960.119 504.699C923.578 506.562 887.138 506.181 850.798 503.56C847.409 495.11 850.445 490.175 859.908 488.756C863.081 486.089 864.98 482.673 865.602 478.507C867.499 438.25 867.119 398.013 864.463 357.799C859.938 353.638 854.622 351.36 848.521 350.966C847.76 344.844 849.277 339.531 853.076 335.024Z" fill="white"/>
<path fill-rule="evenodd" clip-rule="evenodd" d="M1595.55 335.023C1619.1 336.014 1642.64 337.533 1666.15 339.578C1668.26 342.466 1668.64 345.502 1667.29 348.689C1661.97 351.724 1656.66 354.763 1651.35 357.799C1650.21 376.003 1649.83 394.223 1650.21 412.459C1655.41 412.213 1659.96 410.316 1663.87 406.765C1677.16 391.961 1690.44 377.158 1703.73 362.354C1705.51 359.065 1705.13 356.029 1702.59 353.244C1692.68 352.364 1688.89 347.051 1691.2 337.301C1715.7 335.871 1739.62 337.388 1762.94 341.856C1763.27 351.369 1758.33 355.546 1748.14 354.382C1729.82 371.94 1712.36 390.16 1695.76 409.043C1712.94 438.04 1733.43 464.612 1757.25 488.756C1764.13 489.496 1768.69 492.912 1770.91 499.005C1770.19 501.617 1768.67 503.516 1766.36 504.698C1745.86 506.218 1725.36 506.218 1704.87 504.698C1693.15 481.614 1679.1 459.977 1662.73 439.789C1659.85 434.991 1655.68 432.713 1650.21 432.957C1649.83 448.159 1650.21 463.343 1651.35 478.507C1652.26 481.632 1653.4 484.668 1654.76 487.617C1659.96 489.387 1664.89 491.664 1669.57 494.45C1671.08 497.486 1671.08 500.524 1669.57 503.56C1644.31 506.186 1618.87 506.566 1593.27 504.698C1588.68 501.157 1587.92 496.98 1590.99 492.172C1595.81 490.956 1599.98 488.678 1603.52 485.34C1605.04 442.825 1605.04 400.313 1603.52 357.799C1600.12 354.373 1595.95 352.476 1590.99 352.105C1584.75 344.614 1586.27 338.92 1595.55 335.023Z" fill="white"/>
<path fill-rule="evenodd" clip-rule="evenodd" d="M1158.26 355.521C1190.61 354.084 1209.97 369.266 1216.34 401.071C1223.36 432.1 1216.15 459.05 1194.7 481.923C1175.42 492.643 1158.33 489.227 1143.46 471.674C1136.4 462.116 1131.85 451.489 1129.79 439.789C1128.28 423.088 1128.28 406.385 1129.79 389.684C1132.37 381.006 1136.92 373.415 1143.46 366.909C1148.76 363.342 1153.69 359.548 1158.26 355.521Z" fill="#022B3A"/>
<path fill-rule="evenodd" clip-rule="evenodd" d="M1411.07 355.521C1422.95 354.687 1434.33 356.587 1445.23 361.215C1473.87 389.579 1480.32 422.603 1464.59 460.287C1452.69 487.685 1433.33 494.898 1406.51 481.923C1395.5 471.67 1388.29 459.143 1384.88 444.344C1372.93 407.831 1381.66 378.223 1411.07 355.521Z" fill="#022B3A"/>
<path fill-rule="evenodd" clip-rule="evenodd" d="M910.014 357.797C927.419 354.613 942.222 359.168 954.425 371.462C959.463 389.707 953.011 401.475 935.066 406.764C926.888 408.56 918.917 408.18 911.153 405.625C910.014 389.7 909.636 373.758 910.014 357.797Z" fill="#022B3A"/>
<path fill-rule="evenodd" clip-rule="evenodd" d="M910.013 426.124C924.191 426.359 937.856 429.014 951.008 434.095C964.926 448.724 965.685 463.906 953.286 479.646C940.072 484.365 926.407 487.023 912.291 487.617C910.908 467.149 910.15 446.651 910.013 426.124Z" fill="#022B3A"/>
</svg>
